<?xml version="1.0" encoding="UTF-8"?>
<svg id="Layer_2" data-name="Layer 2" xmlns="http://www.w3.org/2000/svg" viewBox="0 0 386.29 220.3">
  <defs>
    <style>
      .cls-1, .cls-2 {
        fill: #f9f7f4;
      }

      .cls-2 {
        font-family: GillSans-Light, 'Gill Sans';
        font-size: 66.21px;
        font-weight: 300;
        letter-spacing: .07em;
      }
    </style>
  </defs>
  <g id="Layer_1-2" data-name="Layer 1">
    <path class="cls-1" d="M59.21,175.24c2.95-3.46,6.49-6.06,9.73-9.09,9.75-8.97,18.68-18.86,26.83-29.29,19.26-24.97,42.24-62.35,31.92-94.75-3.85-10.97-12.54-21.7-23.52-26.01-15.13-5.28-32.43-1.78-46.55,5.01-5.19,2.59-15.3,8.67-15.72,14.36,1.21,2.35,4.07,4.36,6.6,5.93,6.23,3.74,12.82,6.4,19.7,9.53,6.86,3,17.36,7.12,24.55,9.76,12.58,4.85,25,10.07,37.27,15.82,8.24,3.91,16.45,7.73,24.18,12.68,3.99,2.74,8.09,5.47,10.12,10.27,1.77,4.87-.08,8.66-4.92,10.28-5.47,1.91-11.31,2.35-16.88,2.99-4.44.5-8.87.92-13.28,1.37-30.18,3.16-60.84,8.7-86.49,25.28-9.14,6.25-18.01,16.01-20.69,26.24-1.41,5.53-2.15,12,1.37,16.7,3.82,5.13,9.45,7.6,15.62,9.66,22.79,6.56,48.03,2.43,70.83-3.49,16.52-4.62,36.04-10.9,44-27.33,6.63-14.99-5.19-27.86-17.88-34.73,4.21,1.47,8.33,3.33,12.18,5.82,13.77,8.71,18.79,23.61,12.57,38.88-6.21,15.25-19.5,26.37-33.73,33.84-28.71,15.13-64.6,20.41-95.77,9.63-29.09-10.72-39.75-35.38-23.85-62.86,25.63-40.79,91.83-40.91,134.77-43.37,4.39-.33,8.81-.68,12.96-1.51,1.8-.39,3.97-.88,5.3-1.97.28-.23.42-.44.5-.63,1.04-3.12-1.29-5.77-3.74-7.79-5.05-3.93-11.17-6.29-17.29-8.3-12.62-4.03-25.72-6.09-38.76-8.56-13.29-2.38-26.38-5.17-39.63-8.01-9.83-2.14-19.52-5.1-27.82-11.32-5.16-3.91-9.78-8.44-12.46-15.06C13.18,24.14,33.69,9.36,50.98,4.25c18.61-5.59,39.63-6.41,57.52,2.11,12.89,6.66,22.63,19.64,26.46,33.53,10.89,41.98-26.41,91.03-54.82,118.72-3.22,3.1-6.51,6.11-9.92,9.01-3.43,2.79-6.9,6.15-11.02,7.62h0Z"/>
    <text class="cls-2" transform="translate(195.86 177.77)"><tspan x="0" y="0">Studio</tspan></text>
  </g>
</svg>