<?xml version="1.0" encoding="UTF-8"?>
<svg id="Layer_2" data-name="Layer 2" xmlns="http://www.w3.org/2000/svg" viewBox="0 0 387 222.84">
  <defs>
    <style>
      .cls-1, .cls-2 {
        fill: #f9f7f4;
      }

      .cls-2 {
        font-family: GillSans-Light, 'Gill Sans';
        font-size: 66.21px;
        font-weight: 300;
        letter-spacing: .07em;
      }
    </style>
  </defs>
  <g id="Layer_1-2" data-name="Layer 1">
    <path class="cls-1" d="M59.95,177.8c2.76-3.64,6.42-6.07,9.57-9.27,9.54-9.16,18.25-19.23,26.15-29.8,22.34-30.17,51.87-84.02,14.45-113.37-13.98-10.12-36.21-6.77-51.26-.39-5.63,2.38-12.82,6.69-15.51,11.42-.44.85-.51,1.41-.49,1.63.07.22.11.25.32.67,1.1,1.96,3.85,3.84,6.03,5.24,2.75,1.67,5.17,2.97,8.27,4.43,15.49,7.71,32.24,13.25,48.59,19.32,12.62,4.77,25.3,9.83,37.57,15.64,8.47,4.36,25.12,11.38,24.19,23.03-.07.82-.25,1.57-.5,2.36-.46,1.31-1.4,2.58-2.25,3.26-2.65,2.18-5.04,2.72-7.92,3.48-4.77,1.08-9.25,1.53-13.74,2-4.47.49-8.9.9-13.31,1.34-29.12,2.91-58.17,8-83.47,22.73-12.86,7.85-24.87,21.1-24.26,36.47.82,8.8,8.09,12.87,17.47,16.2,25.6,7.54,54.49,1.95,79.74-5.7,12-3.76,24.71-9.6,32.18-19.88,4.61-6.23,6.26-14.43,2.99-21.79-3.32-7.88-10.65-13.67-18.07-17.87,4.21,1.47,8.33,3.33,12.18,5.82,13.76,8.7,18.76,23.61,12.52,38.85-6.7,16.39-21.46,27.77-36.9,35.39-19.45,9.63-41.03,14.44-62.87,13.74-16.88-.66-34.44-4.33-47.95-15.47-14.41-12.2-16.82-28.99-10.1-46.06,3.84-9.82,11.13-18.43,19.24-24.86,28.02-21.87,72.46-25.11,106.58-26.93,9.5-.69,19.58-.46,28.63-2.92.78-.26,1.48-.62,1.61-.77.11-.08,0-.02-.08.18-.01.02-.02.05-.03.08-.03.13.04-.16.03-.17.4-2.01-1.3-3.57-3.11-5.19-8.31-6.35-18.99-9.23-29.03-12.09-17.14-4.39-34.53-7.61-51.87-11.66-13.86-3.11-29.48-5.23-41.19-14.08-16.75-11.86-19.95-31.12-4.04-45.47C46.97,2.82,74.09-2.53,95.57,1.1c7.66,1.34,15.6,4.18,22.07,8.93,14.24,10.71,23.3,28.41,23.21,46.28-.25,32.48-20.6,62.18-40.9,85.89-8.89,10.12-18.47,19.57-28.87,28.1-3.58,2.73-6.78,5.95-11.13,7.5h0Z"/>
    <text class="cls-2" transform="translate(196.58 180.31)"><tspan x="0" y="0">Studio</tspan></text>
  </g>
</svg>