<?xml version="1.0" encoding="UTF-8"?>
<svg id="Layer_2" data-name="Layer 2" xmlns="http://www.w3.org/2000/svg" viewBox="0 0 586.38 340.34">
  <defs>
    <style>
      .cls-1, .cls-2 {
        fill: #f9f7f4;
      }

      .cls-2 {
        font-family: GillSans-Light, 'Gill Sans';
        font-size: 100px;
        font-weight: 300;
        letter-spacing: .07em;
      }
    </style>
  </defs>
  <g id="Layer_1-2" data-name="Layer 1">
    <path class="cls-1" d="M92.43,270.2c3.83-5.49,9.47-9.15,14.33-14.14,14.35-13.87,27.47-29.1,39.31-45.11,26.68-36.63,59.64-94.15,43.78-140.06-4.72-12.99-13.92-24.26-25.55-31.87-16.71-9.69-38.2-8.13-56.53-3.65-10.71,2.74-21.81,7.34-30.49,13.63-3.28,2.29-6.73,5.59-8.34,8.61-.54,1.11-.52,1.69-.45,1.69.16,0,.16-.32.37.05,2.84,4.04,8.9,7.29,13.45,9.89,13.53,7.04,27.99,13.67,42.38,19.34,18.94,7.01,38.01,13.87,56.73,21.61,12.71,5.2,25.3,10.62,37.74,16.59,11.83,6.05,30.35,14.38,35.73,27.47,1.41,3.56,1.64,7.57.57,11.25-2.23,7.3-9.95,9.76-16.09,11.22-11.86,2.69-28.78,3.75-40.94,5.14-32.56,3.33-65.26,8.59-95.84,20.49-11.59,4.62-22.95,9.8-33.29,16.72-13.2,8.88-26.22,23.17-30.13,37.62-1.62,6.06-2.55,12.78-.64,18.62,3.78,9.48,14.27,14.36,24.21,17.7,33.79,10.08,71.62,4.05,105.59-4.4,22.38-5.92,47.52-13.73,61.97-32.7,4.71-6.17,7.61-13.75,7.37-21.55-.83-17.2-15.14-29.77-29.34-37.93,6.38,2.16,12.65,4.92,18.52,8.64,21.29,13.33,28.8,35.67,19.58,59.25-10.01,25.16-32.36,42.82-55.87,54.67-29.45,14.98-62.59,22.31-95.67,21.23-35.97-.87-83.31-14.94-93.4-54.95-5.04-22.01,3.08-45.2,16.86-62.25,38.84-48.42,121.47-53.98,178.88-56.83,10.01-.51,19.94-.9,29.81-1.89,4.58-.5,9.1-1.04,13.26-2.39,1.14-.37,2.14-.9,2.23-1.04.12-.08-.13.1-.29.5.53-1.91-1.6-4.85-4.5-7.16-7.19-5.67-16-9.19-24.86-12.31-31.59-10.4-64.91-14.88-97.31-22.57-16.93-3.66-36.49-6.33-52.25-14.51-12.66-6.91-24.17-15.88-30.28-30.16-7.46-17.8-.1-36.3,13.38-48.11C78.5-1.8,144.72-10.53,180.35,15.65c2.87,1.97,6.67,5.61,9.18,8.1,16.47,16.39,26.35,39.69,26.18,62.91-.45,60.1-49.14,119.82-91,159.07-4.99,4.57-10.09,9.02-15.34,13.28-2.63,2.13-5.3,4.21-8,6.23-2.61,2.27-5.64,3.85-8.93,4.96h0Z"/>
    <text class="cls-2" transform="translate(298.78 273.98)"><tspan x="0" y="0">Studio</tspan></text>
  </g>
</svg>