<?xml version="1.0" encoding="UTF-8"?>
<svg id="Layer_2" data-name="Layer 2" xmlns="http://www.w3.org/2000/svg" viewBox="0 0 409.2 220.73">
  <defs>
    <style>
      .cls-1 {
        font-family: DMSans-ExtraLight, 'DM Sans';
        font-size: 66.21px;
        font-variation-settings: 'opsz' 14, 'wght' 200;
        font-weight: 200;
        letter-spacing: .07em;
      }

      .cls-1, .cls-2 {
        fill: #f9f7f4;
      }
    </style>
  </defs>
  <g id="Layer_1-2" data-name="Layer 1">
    <path class="cls-2" d="M59.22,175.62c2.76-3.33,5.97-6,8.7-9.3,2.73-3.21,5.25-6.6,7.55-10.12,13.42-20.84,21.52-46.08,21.52-70.63.01-8.14-.73-16.15-2.23-23.97-1.47-7.79-3.46-15.65-7.34-22.71-5.26-9.36-15.47-19.51-25.71-22.89-6.48-2.13-13.89-1.92-19.84,1.04-6.95,3.55-10.75,9.47-4.75,16.12,3.57,4.3,9.82,7.93,15.02,10.69,7.05,3.58,15.23,7.14,22.85,10.35,24.03,9.31,48.4,18.57,71.27,30.72,6.71,3.9,19.35,9.94,18.65,19.13-.09,1.44-.81,3.13-1.92,4.04-2.9,2.4-6.54,2.96-9.93,3.65-4.33.77-8.61,1.16-12.87,1.63-29.24,2.74-59.18,6.6-85.57,19.64-16.18,7.7-32.59,21.19-33.71,39.96-1.28,13,13.17,18.68,24.02,20.9,25.32,5.56,67-2.53,90.37-14.37,18.81-9.83,29.16-28.67,11.04-45.34-3.08-2.82-6.62-5.24-10.35-7.34,12.65,4.21,25.34,13.41,27.13,27.74,2.2,20.1-13.64,37-29.44,47-30.91,18.95-74.43,26.22-108.53,10.87-23.55-11.16-31.6-33.17-19.7-56.83,9.12-17.45,26.36-28.45,44.37-34.3,29.14-9.9,59.84-10.87,90.01-12.37,4.24-.24,8.47-.58,12.58-1.17,2.79-.5,5.89-.85,8.04-2.48.4-.41.48-.53.6-1.06.8-3.77-3-6.85-5.98-8.85-14.43-8.74-31.73-10.99-48.09-14.26-12.37-2.16-25.6-4.88-37.92-7.47-11.25-2.35-22.89-4.63-32.93-11.19-9.22-5.95-17.78-13.86-21.33-24.72-3.33-9.43-.57-21.02,6.67-27.87,15.91-15.52,42.57-11.34,56.94,3.18,12.21,11.82,23.79,29.51,27.86,46.13,7.35,33.31-7.29,73.09-27.89,99.17-2.71,3.39-5.63,6.61-8.74,9.63-3.17,2.86-6.39,6.29-10.42,7.67h0Z"/>
    <text class="cls-1" transform="translate(195.87 178.16)"><tspan x="0" y="0">Studio</tspan></text>
  </g>
</svg>